<?xml version="1.0" encoding="UTF-8"?>
<svg xmlns="http://www.w3.org/2000/svg" xmlns:xlink="http://www.w3.org/1999/xlink" width="466pt" height="570pt" viewBox="0 0 466 570" version="1.1">
<g id="surface1">
<rect x="0" y="0" width="466" height="570" style="fill:rgb(100%,100%,100%);fill-opacity:1;stroke:none;"/>
<path style=" stroke:none;fill-rule:nonzero;fill:rgb(18.399048%,8.999634%,23.498535%);fill-opacity:1;" d="M 40.445313 338.566406 L 423.699219 338.566406 L 423.699219 41.492188 L 40.445313 41.492188 Z M 40.445313 338.566406 "/>
<path style=" stroke:none;fill-rule:nonzero;fill:rgb(39.199829%,25.099182%,53.69873%);fill-opacity:1;" d="M 232.179688 516.476563 C 337.949219 516.476563 424.203125 429.5 424.203125 322.941406 C 424.203125 216.453125 337.949219 129.546875 232.179688 129.546875 C 126.339844 129.546875 40.085938 216.453125 40.085938 322.941406 C 40.085938 429.5 126.339844 516.476563 232.179688 516.476563 "/>
<path style=" stroke:none;fill-rule:nonzero;fill:rgb(100%,79.598999%,1.599121%);fill-opacity:1;" d="M 114.894531 98.371094 L 235.636719 56.539063 L 356.378906 98.371094 L 235.636719 140.132813 L 114.894531 98.371094 "/>
<path style=" stroke:none;fill-rule:nonzero;fill:rgb(100%,79.598999%,1.599121%);fill-opacity:1;" d="M 118.421875 111.546875 L 234.195313 176.707031 L 354.722656 113.492188 L 235.203125 155.324219 L 118.421875 111.546875 "/>
<path style=" stroke:none;fill-rule:nonzero;fill:rgb(100%,79.598999%,1.599121%);fill-opacity:1;" d="M 118.421875 137.828125 L 234.195313 202.917969 L 354.722656 139.773438 L 235.203125 181.53125 L 118.421875 137.828125 "/>
<path style=" stroke:none;fill-rule:nonzero;fill:rgb(100%,79.598999%,1.599121%);fill-opacity:1;" d="M 118.421875 161.949219 L 234.195313 227.035156 L 354.722656 163.894531 L 235.203125 205.652344 L 118.421875 161.949219 "/>
<path style=" stroke:none;fill-rule:nonzero;fill:rgb(100%,79.598999%,1.599121%);fill-opacity:1;" d="M 118.421875 187.222656 L 234.195313 252.308594 L 354.722656 189.164063 L 235.203125 230.925781 L 118.421875 187.222656 "/>
<path style=" stroke:none;fill-rule:nonzero;fill:rgb(100%,79.598999%,1.599121%);fill-opacity:1;" d="M 119.355469 212.421875 L 235.203125 277.507813 L 355.730469 214.363281 L 236.140625 256.195313 L 119.355469 212.421875 "/>
<path style=" stroke:none;fill-rule:nonzero;fill:rgb(100%,79.598999%,1.599121%);fill-opacity:1;" d="M 116.476563 236.972656 L 116.476563 263.179688 L 236.140625 303.933594 L 355.730469 262.171875 L 355.730469 236.972656 L 235.203125 279.597656 L 116.476563 236.972656 "/>
<path style=" stroke:none;fill-rule:nonzero;fill:rgb(100%,79.598999%,1.599121%);fill-opacity:1;" d="M 231.390625 354.980469 L 231.605469 387.453125 L 260.621094 370.101563 L 231.390625 354.980469 "/>
<path style=" stroke:none;fill-rule:nonzero;fill:rgb(100%,100%,100%);fill-opacity:1;" d="M 231.605469 406.964844 L 134.402344 463.339844 L 110.285156 467.226563 L 126.699219 447.789063 L 212.597656 397.246094 L 181.707031 379.75 C 149.019531 396.667969 110.355469 418.988281 76.875 436.628906 C 71.476563 429.140625 66.582031 421.21875 62.1875 412.941406 L 137.714844 372.691406 C 133.539063 372.042969 126.917969 371.828125 122.742188 371.179688 C 123.820313 367.726563 125.1875 363.546875 127.347656 360.597656 C 131.453125 354.910156 132.75 353.109375 127.851563 349.941406 C 118.925781 348.933594 112.300781 348.5 115.109375 338.925781 C 111.078125 341.730469 107.476563 342.378906 104.523438 340.867188 C 100.925781 343.460938 97.394531 346.050781 93.867188 348.644531 C 94.300781 358.507813 89.765625 362.109375 83.859375 364.484375 C 50.523438 357.789063 64.921875 327.117188 113.164063 311.707031 C 116.261719 318.980469 125.835938 319.699219 136.347656 319.484375 C 138.582031 323.660156 140.8125 327.910156 143.117188 332.085938 C 147.003906 328.628906 150.027344 323.226563 152.835938 317.613281 C 157.445313 328.773438 162.339844 338.492188 170.117188 337.84375 C 169.539063 343.316406 171.125 348.789063 173.714844 354.261719 C 182.789063 349.148438 191.933594 344.035156 201.003906 338.925781 L 108.339844 289.316406 L 160.46875 289.316406 L 231.605469 325.390625 L 231.605469 355.195313 L 202.589844 370.101563 L 231.605469 387.523438 Z M 402.53125 412.148438 C 398.140625 420.574219 393.101563 428.707031 387.558594 436.339844 L 281.429688 379.75 L 250.539063 397.246094 L 336.4375 447.789063 L 352.851563 467.226563 L 328.730469 463.339844 L 231.605469 406.964844 L 231.605469 387.523438 L 260.546875 370.101563 L 231.605469 355.195313 L 231.605469 325.390625 L 302.667969 289.316406 L 354.722656 289.316406 L 262.132813 338.925781 C 271.203125 344.035156 280.277344 349.148438 289.347656 354.261719 C 292.011719 348.789063 293.597656 343.316406 293.019531 337.84375 C 300.722656 338.492188 305.691406 328.773438 310.230469 317.613281 C 313.109375 323.226563 316.0625 328.628906 320.019531 332.085938 C 322.253906 327.910156 324.558594 323.660156 326.789063 319.484375 C 337.300781 319.699219 346.875 318.980469 349.902344 311.707031 C 398.140625 327.117188 412.613281 357.789063 379.277344 364.484375 C 373.371094 362.109375 368.765625 358.507813 369.195313 348.644531 C 365.667969 346.050781 362.140625 343.460938 358.613281 340.867188 C 355.589844 342.378906 352.0625 341.730469 348.027344 338.925781 C 350.835938 348.5 344.210938 348.933594 335.285156 349.941406 C 330.316406 353.109375 331.613281 354.910156 335.714844 360.597656 C 337.875 363.546875 339.316406 367.726563 340.398438 371.179688 C 336.21875 371.828125 329.597656 372.042969 325.421875 372.691406 C 348.75 384.933594 378.050781 399.40625 402.53125 412.148438 "/>
</g>
</svg>
